<svg width="40" height="41" viewBox="0 0 40 41" fill="none" xmlns="http://www.w3.org/2000/svg">
<rect y="0.516602" width="40" height="40.1354" rx="11.1782" fill="#3692FF"/>
<path d="M19.3139 11.6912C19.8132 13.4167 18.493 15.318 16.9797 15.7589C15.4663 16.1998 13.3989 15.2854 12.8996 13.5599C12.4003 11.8344 13.4485 9.44363 14.9618 9.00276C16.9797 8.41488 18.8146 9.96572 19.3139 11.6912Z" fill="#222327"/>
<path d="M20.1461 11.6912C19.6468 13.4167 20.967 15.318 22.4803 15.7589C23.9936 16.1998 26.0611 15.2854 26.5604 13.5599C27.0597 11.8344 26.0115 9.44363 24.4982 9.00276C22.4803 8.41488 20.6454 9.96572 20.1461 11.6912Z" fill="#222327"/>
<path d="M29.5172 24.2964C29.5172 28.6852 25.2138 30.3166 19.3437 30.3166C13.4736 30.3166 9.26758 28.6852 9.26758 24.2964C9.26758 19.1912 13.4736 14.6641 19.3437 14.6641C25.2138 14.6641 29.5172 18.806 29.5172 24.2964Z" fill="#F3D6DD"/>
<path d="M17.4003 23.4299C17.4003 24.8673 16.4777 26.4441 15.1884 26.4441C13.8991 26.4441 11.8164 25.2729 11.8164 23.1258C11.8164 21.1087 14.0664 20.3914 16.3913 20.7597C17.8163 20.9855 17.4003 21.9925 17.4003 23.4299Z" fill="#222327"/>
<path d="M16.3221 23.2849C16.3221 23.5005 16.2573 23.6753 15.933 23.6753C15.6088 23.6753 15.5439 23.5005 15.5439 23.2849C15.5439 23.0693 15.6736 22.8945 15.933 22.8945C16.1924 22.8945 16.3221 23.0693 16.3221 23.2849Z" fill="white"/>
<path d="M21.3223 23.4299C21.3223 24.8673 22.2449 26.4441 23.5342 26.4441C24.8235 26.4441 26.9062 25.2729 26.9062 23.1258C26.9062 21.1087 24.6563 20.3914 22.3313 20.7597C20.9064 20.9855 21.3223 21.9925 21.3223 23.4299Z" fill="#222327"/>
<path d="M22.4015 23.2849C22.4015 23.5005 22.4664 23.6753 22.7906 23.6753C23.1148 23.6753 23.1797 23.5005 23.1797 23.2849C23.1797 23.0693 23.05 22.8945 22.7906 22.8945C22.5312 22.8945 22.4015 23.0693 22.4015 23.2849Z" fill="white"/>
<path d="M17.8754 25.5096C17.7969 25.395 17.6404 25.3657 17.5258 25.4442C17.4112 25.5227 17.382 25.6793 17.4605 25.7939L17.8754 25.5096ZM19.3179 25.2002L19.5559 25.1187C19.521 25.017 19.4254 24.9487 19.3179 24.9487C19.2104 24.9487 19.1148 25.017 19.08 25.1187L19.3179 25.2002ZM21.1754 25.7939C21.2539 25.6793 21.2246 25.5227 21.1101 25.4442C20.9955 25.3657 20.8389 25.395 20.7604 25.5096L21.1754 25.7939ZM17.4605 25.7939C17.53 25.8953 17.6562 26.0312 17.8254 26.1435C17.9962 26.2568 18.2244 26.3547 18.493 26.3547V25.8517C18.349 25.8517 18.2163 25.7992 18.1035 25.7243C17.9891 25.6485 17.9091 25.5586 17.8754 25.5096L17.4605 25.7939ZM18.493 26.3547C18.8235 26.3547 19.0693 26.119 19.2223 25.916C19.3838 25.7016 19.498 25.4506 19.5559 25.2817L19.08 25.1187C19.0347 25.2508 18.9427 25.4513 18.8206 25.6132C18.69 25.7865 18.5749 25.8517 18.493 25.8517V26.3547ZM19.08 25.2817C19.1379 25.4506 19.252 25.7016 19.4136 25.916C19.5666 26.119 19.8124 26.3547 20.1429 26.3547V25.8517C20.061 25.8517 19.9459 25.7865 19.8153 25.6132C19.6932 25.4513 19.6011 25.2508 19.5559 25.1187L19.08 25.2817ZM20.1429 26.3547C20.4115 26.3547 20.6397 26.2568 20.8105 26.1435C20.9797 26.0312 21.1059 25.8953 21.1754 25.7939L20.7604 25.5096C20.7268 25.5586 20.6467 25.6485 20.5324 25.7243C20.4196 25.7992 20.2868 25.8517 20.1429 25.8517V26.3547Z" fill="#222327"/>
<path d="M20.6913 24.9678C20.6913 25.177 19.7493 25.4433 19.4322 25.527C19.3645 25.5449 19.2946 25.5449 19.2268 25.527C18.9098 25.4433 17.9678 25.177 17.9678 24.9678C17.9678 24.7162 18.7207 24.4473 19.3295 24.4473C19.9384 24.4473 20.6913 24.7162 20.6913 24.9678Z" fill="#222327"/>
<path d="M19.1655 18.2761C15.3813 18.2761 13.9906 16.9466 13.7656 16.169L15.5656 14.2124L19.4655 13.5352L24.8654 16.169C24.5404 16.7961 22.9539 18.2761 19.1655 18.2761Z" fill="#222327"/>
<path fill-rule="evenodd" clip-rule="evenodd" d="M19.6898 32.4989C27.5098 32.4989 33.2427 30.295 33.2427 24.3657C33.2427 16.9482 27.5098 11.3525 19.6898 11.3525C11.8698 11.3525 6.2666 17.4687 6.2666 24.3657C6.2666 30.295 11.8698 32.4989 19.6898 32.4989ZM19.3823 30.2218C25.1345 30.2218 29.3515 28.6079 29.3515 24.2658C29.3515 18.8339 25.1345 14.7362 19.3823 14.7362C13.6301 14.7362 9.50854 19.2151 9.50854 24.2658C9.50854 28.6079 13.6301 30.2218 19.3823 30.2218Z" fill="white"/>
</svg>
